<?xml version="1.0" encoding="UTF-8" standalone="no"?><!DOCTYPE svg PUBLIC "-//W3C//DTD SVG 1.1//EN" "http://www.w3.org/Graphics/SVG/1.1/DTD/svg11.dtd"><svg width="100%" height="100%" viewBox="0 0 8 8" version="1.1" xmlns="http://www.w3.org/2000/svg" xmlns:xlink="http://www.w3.org/1999/xlink" xml:space="preserve" xmlns:serif="http://www.serif.com/" style="fill-rule:evenodd;clip-rule:evenodd;stroke-linejoin:round;stroke-miterlimit:2;"><path d="M0,4.038c0,-0.776 0.172,-1.468 0.517,-2.076c0.345,-0.609 0.817,-1.088 1.416,-1.437c0.599,-0.35 1.286,-0.525 2.062,-0.525c0.776,-0 1.464,0.175 2.062,0.525c0.599,0.349 1.071,0.828 1.416,1.437c0.345,0.608 0.517,1.3 0.517,2.076c0,0.69 -0.105,1.327 -0.316,1.912c-0.211,0.584 -0.517,1.058 -0.92,1.422l-1.868,-1.58c0.115,-0.106 0.221,-0.23 0.316,-0.374c0.096,-0.144 0.17,-0.307 0.223,-0.489c0.053,-0.182 0.079,-0.393 0.079,-0.632c0,-0.287 -0.062,-0.539 -0.187,-0.755c-0.124,-0.215 -0.299,-0.38 -0.524,-0.495c-0.225,-0.115 -0.486,-0.173 -0.783,-0.173c-0.288,0 -0.544,0.055 -0.769,0.165c-0.225,0.111 -0.405,0.274 -0.539,0.489c-0.134,0.216 -0.201,0.472 -0.201,0.769c-0,0.239 0.024,0.45 0.071,0.632c0.048,0.182 0.118,0.345 0.209,0.489c0.091,0.144 0.199,0.268 0.323,0.374l-1.882,1.566c-0.393,-0.355 -0.695,-0.824 -0.906,-1.408c-0.211,-0.585 -0.316,-1.222 -0.316,-1.912Z" style="fill:url(#_Linear1);fill-rule:nonzero;"/><path d="M5.455,3.767c-1.001,0.221 -1.918,0.221 -2.923,-0.001c-0.036,0.056 -0.034,0.107 -0.03,0.16c1.065,0.272 1.89,0.29 2.986,0.008c0.005,-0.045 0.007,-0.103 -0.033,-0.167Z" style="fill:#a2cfff;"/><circle cx="3.995" cy="4.138" r="0.452" style="fill:#007dff;"/><defs><linearGradient id="_Linear1" x1="0" y1="0" x2="1" y2="0" gradientUnits="userSpaceOnUse" gradientTransform="matrix(-0.0574843,98.1886,-98.1886,-0.0574843,4.4694,3.86582)"><stop offset="0" style="stop-color:#007dff;stop-opacity:1"/><stop offset="1" style="stop-color:#007dff;stop-opacity:0"/></linearGradient></defs></svg>