<?xml version="1.0" encoding="UTF-8" standalone="no"?><!DOCTYPE svg PUBLIC "-//W3C//DTD SVG 1.1//EN" "http://www.w3.org/Graphics/SVG/1.1/DTD/svg11.dtd"><svg width="100%" height="100%" viewBox="0 0 7 5" version="1.1" xmlns="http://www.w3.org/2000/svg" xmlns:xlink="http://www.w3.org/1999/xlink" xml:space="preserve" xmlns:serif="http://www.serif.com/" style="fill-rule:evenodd;clip-rule:evenodd;stroke-linejoin:round;stroke-miterlimit:2;"><path d="M1.932,0.437l-0,0.534c-0,0.058 0.047,0.105 0.105,0.105c0.058,-0 0.105,-0.047 0.105,-0.105l0,-0.534l2.615,0l0,0.534c0,0.058 0.047,0.105 0.105,0.105c0.058,-0 0.106,-0.047 0.106,-0.105l-0,-0.534l0.121,0c0.121,0 0.219,-0.098 0.219,-0.218c-0,-0.121 -0.098,-0.219 -0.219,-0.219l-3.294,-0c-0.121,-0 -0.219,0.098 -0.219,0.219c0,0.12 0.098,0.218 0.219,0.218l0.137,0Z"/><path d="M6.894,0.929c0,-0.102 -0.082,-0.185 -0.184,-0.185l-6.525,0c-0.102,0 -0.185,0.083 -0.185,0.185l0,3.604c0,0.102 0.083,0.185 0.185,0.185l6.525,-0c0.102,-0 0.184,-0.083 0.184,-0.185l0,-3.604Zm-2.147,1.386l-0.011,0.863l-0.863,-0.01l-0.01,0.863l-0.863,-0.011l0.011,-0.863l-0.863,-0.01l0.01,-0.863l0.863,0.01l0.01,-0.863l0.863,0.011l-0.01,0.863l0.863,0.01Z" style="fill:#007dff;"/><path d="M2.511,1.188c-0,-0.036 -0.03,-0.066 -0.066,-0.066l-1.972,0c-0.036,0 -0.065,0.03 -0.065,0.066l-0,0.072c-0,0.036 0.029,0.066 0.065,0.066l1.972,-0c0.036,-0 0.066,-0.03 0.066,-0.066l-0,-0.072Z" style="fill:#fff;fill-opacity:0.4;"/><path d="M2.511,1.586c-0,-0.036 -0.03,-0.066 -0.066,-0.066l-1.972,0c-0.036,0 -0.065,0.03 -0.065,0.066l-0,0.072c-0,0.036 0.029,0.066 0.065,0.066l1.972,-0c0.036,-0 0.066,-0.03 0.066,-0.066l-0,-0.072Z" style="fill:#fff;fill-opacity:0.4;"/></svg>